<?xml version="1.0" encoding="utf-8"?>
<!-- Generator: Adobe Illustrator 25.2.1, SVG Export Plug-In . SVG Version: 6.00 Build 0)  -->
<svg version="1.1" id="Layer_1" xmlns="http://www.w3.org/2000/svg" xmlns:xlink="http://www.w3.org/1999/xlink" x="0px" y="0px"
	 viewBox="0 0 400 400" style="enable-background:new 0 0 400 400;" xml:space="preserve">
<style type="text/css">
	.st0{fill:#259CF4;stroke:#259CF4;stroke-width:0.8218;stroke-miterlimit:10;}
	.st1{fill:#259CF4;stroke:#259CF4;stroke-width:0.6908;stroke-miterlimit:10;}
</style>
<g>
	<g>
		<path class="st0" d="M188.1,203.6c-4.6,0-8.4,3.8-8.4,8.4c0,4.6,3.8,8.4,8.4,8.4c4.6,0,8.4-3.8,8.4-8.4
			C196.5,207.3,192.7,203.6,188.1,203.6z M188.1,218.3c-3.5,0-6.4-2.9-6.4-6.4c0-3.5,2.9-6.4,6.4-6.4c3.5,0,6.4,2.9,6.4,6.4
			C194.5,215.5,191.6,218.3,188.1,218.3z"/>
		<path class="st0" d="M206.9,215.2v-6.6c0-0.5-0.4-1-1-1h-4.1c-0.2-0.8-0.6-1.6-1-2.3l2.9-2.9c0.2-0.2,0.3-0.4,0.3-0.7
			s-0.1-0.5-0.3-0.7l-4.7-4.7c-0.2-0.2-0.4-0.3-0.7-0.3c-0.3,0-0.5,0.1-0.7,0.3l-2.9,2.9c-0.7-0.4-1.5-0.7-2.3-1v-4.1
			c0-0.5-0.4-1-1-1h-6.7c-0.5,0-1,0.4-1,1v4.1c-0.8,0.2-1.6,0.6-2.3,1l-2.9-2.9c-0.2-0.2-0.4-0.3-0.7-0.3c-0.3,0-0.5,0.1-0.7,0.3
			l-4.7,4.7c-0.2,0.2-0.3,0.4-0.3,0.7s0.1,0.5,0.3,0.7l2.9,2.9c-0.4,0.7-0.7,1.5-1,2.3h-4.1c-0.5,0-1,0.4-1,1v6.7c0,0.5,0.4,1,1,1
			h4.1c0.2,0.8,0.6,1.6,1,2.3l-2.9,2.9c-0.4,0.4-0.4,1,0,1.4l4.7,4.7c0.2,0.2,0.4,0.3,0.7,0.3c0.3,0,0.5-0.1,0.7-0.3l2.9-2.9
			c0.7,0.4,1.5,0.7,2.3,1v4.1c0,0.5,0.4,1,1,1h6.7c0.5,0,1-0.4,1-1v-4.1c0.8-0.2,1.6-0.6,2.3-1l2.9,2.9c0.2,0.2,0.4,0.3,0.7,0.3
			c0.3,0,0.5-0.1,0.7-0.3l4.7-4.7c0.4-0.4,0.4-1,0-1.4l-2.9-2.9c0.4-0.7,0.7-1.5,1-2.3h4.1c0,0,0,0,0,0
			C206.5,216.3,206.9,215.8,206.9,215.2C206.9,215.3,206.9,215.2,206.9,215.2z M201,214.3c-0.4,0-0.8,0.3-1,0.7
			c-0.3,1.1-0.7,2.2-1.3,3.2c-0.2,0.4-0.2,0.9,0.2,1.2l2.8,2.8l-3.3,3.3l-2.8-2.8c-0.3-0.3-0.8-0.4-1.2-0.2c-1,0.6-2.1,1-3.2,1.3
			c-0.4,0.1-0.7,0.5-0.7,1v3.9h-4.7v-3.9c0-0.4-0.3-0.8-0.7-1c-1.1-0.3-2.2-0.7-3.2-1.3c-0.4-0.2-0.9-0.2-1.2,0.2l-2.8,2.8l-3.3-3.3
			l2.8-2.8c0.3-0.3,0.4-0.8,0.2-1.2c-0.6-1-1-2.1-1.3-3.2c-0.1-0.4-0.5-0.7-1-0.7h-3.9v-4.7h3.9c0.4,0,0.8-0.3,1-0.7
			c0.3-1.1,0.7-2.2,1.3-3.2c0.2-0.4,0.2-0.9-0.2-1.2l-2.8-2.8l3.3-3.3l2.8,2.8c0.3,0.3,0.8,0.4,1.2,0.2c1-0.6,2.1-1,3.2-1.3
			c0.4-0.1,0.7-0.5,0.7-1v-3.9h4.7v3.9c0,0.4,0.3,0.8,0.7,1c1.1,0.3,2.2,0.7,3.2,1.3c0.4,0.2,0.9,0.2,1.2-0.2l2.8-2.8l3.3,3.3
			l-2.8,2.8c-0.3,0.3-0.4,0.8-0.2,1.2c0.6,1,1,2.1,1.3,3.2c0.1,0.4,0.5,0.7,1,0.7h3.9v4.7H201z"/>
	</g>
	<g>
		<path class="st1" d="M217.5,179.3c-3.6-1.4-7.7,0.5-9,4.1c-1.4,3.6,0.5,7.7,4.1,9c3.6,1.4,7.7-0.5,9-4.1
			C223,184.8,221.2,180.7,217.5,179.3z M213.2,191c-2.8-1-4.2-4.1-3.2-6.9c1-2.8,4.1-4.2,6.9-3.2c2.8,1,4.2,4.1,3.2,6.9
			C219.1,190.6,216,192,213.2,191z"/>
		<path class="st1" d="M229,194l1.9-5.2c0.2-0.4-0.1-0.9-0.5-1.1l-3.3-1.2c0-0.7,0-1.4-0.1-2.1l3.2-1.4c0.2-0.1,0.4-0.3,0.4-0.5
			c0.1-0.2,0.1-0.4,0-0.6l-2.3-5.1c-0.1-0.2-0.3-0.4-0.5-0.4c-0.2-0.1-0.4-0.1-0.6,0l-3.2,1.4c-0.5-0.5-1-1-1.5-1.4l1.2-3.3
			c0.2-0.4-0.1-0.9-0.5-1.1l-5.3-2c-0.4-0.2-0.9,0.1-1.1,0.5l-1.2,3.3c-0.7,0-1.4,0-2.1,0.1l-1.4-3.2c-0.1-0.2-0.3-0.4-0.5-0.4
			c-0.2-0.1-0.4-0.1-0.6,0l-5.1,2.3c-0.2,0.1-0.4,0.3-0.4,0.5c-0.1,0.2-0.1,0.4,0,0.6l1.4,3.2c-0.5,0.5-1,1-1.4,1.5l-3.3-1.2
			c-0.4-0.2-0.9,0.1-1.1,0.5l-2,5.3c-0.2,0.4,0.1,0.9,0.5,1.1l3.3,1.2c0,0.7,0,1.4,0.1,2.1l-3.2,1.4c-0.4,0.2-0.6,0.7-0.4,1.1
			l2.3,5.1c0.1,0.2,0.3,0.4,0.5,0.4c0.2,0.1,0.4,0.1,0.6,0l3.2-1.4c0.5,0.5,1,1,1.5,1.4l-1.2,3.3c-0.2,0.4,0.1,0.9,0.5,1.1l5.3,2
			c0.4,0.2,0.9-0.1,1.1-0.5l1.2-3.3c0.7,0,1.4,0,2.1-0.1l1.4,3.2c0.1,0.2,0.3,0.4,0.5,0.4c0.2,0.1,0.4,0.1,0.6,0l5.1-2.3
			c0.4-0.2,0.6-0.7,0.4-1.1l-1.4-3.2c0.5-0.5,1-1,1.4-1.5l3.3,1.2c0,0,0,0,0,0C228.3,194.7,228.8,194.5,229,194
			C228.9,194.1,228.9,194.1,229,194z M224.6,191.6c-0.4-0.1-0.8,0-1,0.3c-0.6,0.8-1.2,1.5-2,2.1c-0.3,0.2-0.4,0.6-0.2,1l1.4,3
			l-3.6,1.7l-1.4-3c-0.2-0.3-0.5-0.5-0.9-0.5c-1,0.2-1.9,0.2-2.9,0.1c-0.4,0-0.7,0.2-0.9,0.5l-1.1,3.1l-3.7-1.4l1.1-3.1
			c0.1-0.4,0-0.8-0.3-1c-0.8-0.6-1.5-1.2-2.1-2c-0.2-0.3-0.6-0.4-1-0.2l-3,1.4l-1.6-3.6l3-1.4c0.3-0.2,0.5-0.5,0.5-0.9
			c-0.2-1-0.2-1.9-0.1-2.9c0-0.4-0.2-0.7-0.5-0.9l-3.1-1.1l1.4-3.7l3.1,1.1c0.4,0.1,0.8,0,1-0.3c0.6-0.8,1.2-1.5,2-2.1
			c0.3-0.2,0.4-0.6,0.2-1l-1.4-3l3.6-1.6l1.4,3c0.2,0.3,0.5,0.5,0.9,0.5c1-0.2,1.9-0.2,2.9-0.1c0.4,0,0.7-0.2,0.9-0.5l1.1-3.1
			l3.7,1.4l-1.1,3.1c-0.1,0.4,0,0.8,0.3,1c0.8,0.6,1.5,1.2,2.1,2c0.2,0.3,0.6,0.4,1,0.2l3-1.4l1.6,3.6l-3,1.4
			c-0.3,0.2-0.5,0.5-0.5,0.9c0.2,1,0.2,1.9,0.1,2.9c0,0.4,0.2,0.7,0.5,0.9l3.1,1.1l-1.4,3.7L224.6,191.6z"/>
	</g>
</g>
</svg>
