<?xml version="1.0" encoding="utf-8"?>
<!-- Generator: Adobe Illustrator 25.2.1, SVG Export Plug-In . SVG Version: 6.00 Build 0)  -->
<svg version="1.1" id="Layer_1" xmlns="http://www.w3.org/2000/svg" xmlns:xlink="http://www.w3.org/1999/xlink" x="0px" y="0px"
	 viewBox="0 0 400 400" style="enable-background:new 0 0 400 400;" xml:space="preserve">
<style type="text/css">
	.st0{fill:#259CF4;stroke:#259CF4;stroke-width:1.2058;stroke-miterlimit:10;}
</style>
<path class="st0" d="M1144.5,841.4l-9-10.8c-0.3-0.3-0.7-0.5-1.1-0.5h-12.4c0,0,0,0,0,0h-9c0,0,0,0,0,0h-12.4
	c-0.4,0-0.8,0.2-1.1,0.5l-9,10.8c-0.2,0.3-0.3,0.6-0.3,0.9v35.4c0,0.8,0.6,1.4,1.4,1.4h52c0.8,0,1.4-0.6,1.4-1.4v-35.4
	C1144.8,842,1144.7,841.7,1144.5,841.4z M1140.5,841.1h-14l-2.5-8.1h9.8L1140.5,841.1z M1110.7,843.9h13.4v11.4h-13.4V843.9z
	 M1120.9,832.9l2.5,8.1h-12l2.5-8.1H1120.9z M1101.1,832.9h9.8l-2.5,8.1h-14L1101.1,832.9z M1092.9,876.3v-32.3h15v12.8
	c0,0.8,0.6,1.4,1.4,1.4h16.2c0.8,0,1.4-0.6,1.4-1.4v-12.8h15v32.3H1092.9z"/>
<path class="st0" d="M227.2,187.2l-9-10.8c-0.3-0.3-0.7-0.5-1.1-0.5h-12.4c0,0,0,0,0,0h-9c0,0,0,0,0,0h-12.4c-0.4,0-0.8,0.2-1.1,0.5
	l-9,10.8c-0.2,0.3-0.3,0.6-0.3,0.9v35.4c0,0.8,0.6,1.4,1.4,1.4h52c0.8,0,1.4-0.6,1.4-1.4v-35.4C227.5,187.8,227.4,187.5,227.2,187.2
	z M223.1,186.9h-14l-2.5-8.1h9.8L223.1,186.9z M193.4,189.8h13.4v11.4h-13.4V189.8z M203.5,178.8l2.5,8.1h-12l2.5-8.1H203.5z
	 M183.8,178.8h9.8l-2.5,8.1h-14L183.8,178.8z M175.5,222.1v-32.3h15v12.8c0,0.8,0.6,1.4,1.4,1.4h16.2c0.8,0,1.4-0.6,1.4-1.4v-12.8
	h15v32.3H175.5z"/>
</svg>
