<?xml version="1.0" encoding="utf-8"?>
<!-- Generator: Adobe Illustrator 25.2.1, SVG Export Plug-In . SVG Version: 6.00 Build 0)  -->
<svg version="1.1" id="Layer_1" xmlns="http://www.w3.org/2000/svg" xmlns:xlink="http://www.w3.org/1999/xlink" x="0px" y="0px"
	 viewBox="0 0 400 400" style="enable-background:new 0 0 400 400;" xml:space="preserve">
<style type="text/css">
	.st0{fill:#259CF4;stroke:#259CF4;stroke-width:1.2058;stroke-miterlimit:10;}
</style>
<g>
	<path class="st0" d="M229,215.6h-2.2v-36.8h2.2c0.8,0,1.4-0.6,1.4-1.4s-0.6-1.4-1.4-1.4h-23.1v-4.3c0-0.8-0.6-1.4-1.4-1.4h-8.7
		c-0.8,0-1.4,0.6-1.4,1.4v4.3h-23.1c-0.8,0-1.4,0.6-1.4,1.4s0.6,1.4,1.4,1.4h2.2v36.8h-2.2c-0.8,0-1.4,0.6-1.4,1.4s0.6,1.4,1.4,1.4
		h25l-6.1,10c-0.4,0.7-0.2,1.6,0.5,2c0.2,0.1,0.5,0.2,0.7,0.2c0.5,0,1-0.2,1.2-0.7l6-9.9v9.2c0,0.8,0.6,1.4,1.4,1.4
		c0.8,0,1.4-0.6,1.4-1.4v-9.2l6,9.9c0.3,0.5,0.7,0.7,1.2,0.7c0.3,0,0.5-0.1,0.7-0.2c0.7-0.4,0.9-1.3,0.5-2l-6.1-10h25
		c0.8,0,1.4-0.6,1.4-1.4S229.8,215.6,229,215.6z M197.2,173h5.8v2.9h-5.8V173z M176.2,178.8h47.7v36.8h-47.7V178.8z"/>
	<path class="st0" d="M217.7,183.3c-0.4-0.3-0.9-0.5-1.3-0.4l-10.1,2.4c-0.8,0.2-1.3,1-1.1,1.7c0.2,0.8,1,1.3,1.7,1.1l5.1-1.2
		l-12.1,12l-2.1-3.9c-0.2-0.4-0.6-0.7-1.1-0.7c-0.5-0.1-0.9,0.1-1.2,0.4l-14.4,14.5c-0.6,0.6-0.6,1.5,0,2c0.3,0.3,0.7,0.4,1,0.4
		c0.4,0,0.7-0.1,1-0.4l13-13.1l2.1,3.9c0.2,0.4,0.6,0.7,1.1,0.7c0.4,0.1,0.9-0.1,1.2-0.4l13.6-13.5l-1.1,5.3
		c-0.2,0.8,0.3,1.5,1.1,1.7c0.1,0,0.2,0,0.3,0c0.7,0,1.3-0.5,1.4-1.1l2.2-10.1C218.2,184.2,218.1,183.7,217.7,183.3z"/>
</g>
</svg>
