<?xml version="1.0" encoding="utf-8"?>
<!-- Generator: Adobe Illustrator 25.2.1, SVG Export Plug-In . SVG Version: 6.00 Build 0)  -->
<svg version="1.1" id="Layer_1" xmlns="http://www.w3.org/2000/svg" xmlns:xlink="http://www.w3.org/1999/xlink" x="0px" y="0px"
	 viewBox="0 0 400 400" style="enable-background:new 0 0 400 400;" xml:space="preserve">
<style type="text/css">
	.st0{fill:#259CF4;stroke:#259CF4;stroke-width:1.2058;stroke-miterlimit:10;}
</style>
<path class="st0" d="M220.9,218.4l-2.2-2.2v-30.5c0,0,0,0,0,0c0,0,0,0,0-0.1c0-0.1,0-0.1,0-0.2c0,0,0,0,0,0c0-0.1,0-0.1-0.1-0.2
	c0,0,0,0,0,0c0-0.1,0-0.1-0.1-0.2c0,0,0,0,0,0c0-0.1-0.1-0.1-0.1-0.2c0,0,0,0,0,0c0-0.1-0.1-0.1-0.1-0.1v0l-11.6-11.6l0,0
	c0,0-0.1-0.1-0.1-0.1c0,0,0,0,0,0c-0.1,0-0.1-0.1-0.2-0.1c0,0,0,0,0,0c-0.1,0-0.1-0.1-0.2-0.1c0,0,0,0,0,0c-0.1,0-0.1,0-0.2-0.1
	c0,0,0,0,0,0c-0.1,0-0.1,0-0.2,0c0,0,0,0,0,0c0,0,0,0,0,0H179c-0.8,0-1.4,0.6-1.4,1.4v49.1c0,0.8,0.6,1.4,1.4,1.4h31.8l2,2
	c1.1,1.1,2.6,1.7,4,1.7c1.5,0,2.9-0.6,4-1.7l0.2-0.2C223.2,224.2,223.2,220.6,220.9,218.4z M207.2,177.6l6.6,6.6h-6.6V177.6z
	 M180.4,221.7v-46.2h23.8v10.1c0,0.8,0.6,1.4,1.4,1.4h10.1v26.2l-3.9-3.9c0,0-0.1-0.1-0.1-0.1c0.7-1.7,1.1-3.6,1.1-5.5
	c0-4-1.5-7.7-4.3-10.5c-2.8-2.8-6.5-4.3-10.5-4.3c-4,0-7.7,1.5-10.5,4.3c-5.8,5.8-5.8,15.2,0,20.9c2.8,2.8,6.5,4.3,10.5,4.3
	c1.9,0,3.8-0.4,5.5-1.1c0,0,0.1,0.1,0.1,0.1l4.1,4.1H180.4z M198.1,215.7c-3.2,0-6.2-1.2-8.4-3.5c-4.6-4.6-4.6-12.2,0-16.9
	c2.2-2.2,5.2-3.5,8.4-3.5c3.2,0,6.2,1.2,8.4,3.5s3.5,5.2,3.5,8.4c0,3.2-1.2,6.2-3.5,8.4C204.3,214.5,201.3,215.7,198.1,215.7z
	 M218.9,224.4l-0.2,0.2c-1.1,1.1-2.9,1.1-4,0l-8.4-8.4c0.8-0.5,1.6-1.2,2.3-1.9c0.7-0.7,1.3-1.5,1.9-2.3l8.4,8.4
	C220,221.5,220,223.3,218.9,224.4z"/>
</svg>
