<?xml version="1.0" encoding="utf-8"?>
<!-- Generator: Adobe Illustrator 25.2.1, SVG Export Plug-In . SVG Version: 6.00 Build 0)  -->
<svg version="1.1" id="Layer_1" xmlns="http://www.w3.org/2000/svg" xmlns:xlink="http://www.w3.org/1999/xlink" x="0px" y="0px"
	 viewBox="0 0 400 400" style="enable-background:new 0 0 400 400;" xml:space="preserve">
<style type="text/css">
	.st0{fill:#259CF4;stroke:#259CF4;stroke-width:1.0566;stroke-miterlimit:10;}
</style>
<path class="st0" d="M219.7,181.5c0.7,0,1.3-0.6,1.3-1.3c0-0.7-0.6-1.3-1.3-1.3h-34.5c-0.7,0-1.3,0.6-1.3,1.3c0,0.7,0.6,1.3,1.3,1.3
	H196v2.2h-10.8c-1.9,0-3.5-1.6-3.5-3.5c0-1.9,1.6-3.5,3.5-3.5h34.5c0.7,0,1.3-0.6,1.3-1.3c0-0.7-0.6-1.3-1.3-1.3h-34.5
	c-3.3,0-6,2.7-6,6c0,0.2,0,40.5,0,40.5c0,3.3,2.7,6,6,6h34.5c0.7,0,1.3-0.6,1.3-1.3V185c0-0.7-0.6-1.3-1.3-1.3h-5.4v-2.2H219.7z
	 M218.4,186.2v38h-33.2c-1.9,0-3.5-1.6-3.5-3.5v-35.6c1,0.7,2.2,1.1,3.5,1.1H196v21.4c0,0.5,0.3,1,0.8,1.2c0.5,0.2,1,0.1,1.4-0.2
	l7-6.7l7,6.7c0.2,0.2,0.6,0.3,0.9,0.3c0.2,0,0.3,0,0.5-0.1c0.5-0.2,0.8-0.7,0.8-1.2v-21.4H218.4z M211.8,204.7l-5.8-5.5
	c-0.5-0.5-1.3-0.5-1.7,0l-5.8,5.5v-23.2h13.3V204.7z"/>
</svg>
