<?xml version="1.0" encoding="utf-8"?>
<!-- Generator: Adobe Illustrator 25.2.1, SVG Export Plug-In . SVG Version: 6.00 Build 0)  -->
<svg version="1.1" id="Layer_1" xmlns="http://www.w3.org/2000/svg" xmlns:xlink="http://www.w3.org/1999/xlink" x="0px" y="0px"
	 viewBox="0 0 400 400" style="enable-background:new 0 0 400 400;" xml:space="preserve">
<style type="text/css">
	.st0{fill:#259CF4;stroke:#259CF4;stroke-width:1.1098;stroke-miterlimit:10;}
</style>
<path class="st0" d="M228,191.3c0-2.6-2.1-4.7-4.7-4.7h-12v-2c0-3.5-2.8-6.3-6.3-6.3h-10c-3.5,0-6.3,2.8-6.3,6.3v2h-12
	c-2.6,0-4.7,2.1-4.7,4.7v26.6c0,2.6,2.1,4.7,4.7,4.7h46.5c2.6,0,4.7-2.1,4.7-4.7V191.3z M191.4,184.7c0-2,1.6-3.7,3.7-3.7h10
	c2,0,3.7,1.6,3.7,3.7v2h-17.3V184.7z M174.8,191.3c0-1.1,0.9-2,2-2h46.5c1.1,0,2,0.9,2,2v8.6h-50.5V191.3z M208.4,202.6h6.6v3.8
	h-6.6V202.6z M185.1,202.6h6.6v3.8h-6.6V202.6z M223.3,219.9h-46.5c-1.1,0-2-0.9-2-2v-15.3h7.6v5.1c0,0.7,0.6,1.3,1.3,1.3h9.3
	c0.7,0,1.3-0.6,1.3-1.3v-5.1h11.3v5.1c0,0.7,0.6,1.3,1.3,1.3h9.3c0.7,0,1.3-0.6,1.3-1.3v-5.1h7.6v15.3
	C225.3,219,224.4,219.9,223.3,219.9z"/>
</svg>
